# xmcd CD database file
#
# Track frame offsets:
#	182
#	14930
#	29437
#	42762
#	54585
#	67437
#	82115
#	94437
#	130507
#	148387
#	174712
#	211295
#	236892
#	280772
#
# Disc length: 4229 seconds
#
# Revision: 4
# Processed by: cddbd v1.5PL3 Copyright (c) Steve Scherf et al.
# Submitted via: CDex 1.51
#
DISCID=e110830e
DTITLE=Stan Getz - Jazz Portrait - The Cool Mr. Getz
DYEAR=1991
DGENRE=Jazz
TTITLE0=Four Brothers (Woody Herman Orchestra)
TTITLE1=Early Autumn (Woody Herman Orchestra)
TTITLE2=Long Island Sound (Stan Getz Quartet)
TTITLE3=Hershey Bar (Stan Getz Quartet)
TTITLE4=Penny (Stan Getz Quartet)
TTITLE5=Moonlight in Vermont (Johnny Smith Quintet ft. Stan Getz)
TTITLE6=Stella By Starlight (Stan Getz Quintet ft. Jimmy Raney)
TTITLE7=Fascinatin' Rhythm (Stan Getz Quintet)
TTITLE8=Night Rider (Stan Getz and Orchestra)
TTITLE9=Desafinado (Stan Getz/Charlie Byrd)
TTITLE10=Con Alma (Stan Getz Quartet)
TTITLE11=The Peacocks (Stan Getz/Jimmie Rowles)
TTITLE12=The Dolphin (Stan Getz Quartet)
TTITLE13=Apasionado (Stan Getz and Orchestra)
EXTD=Zounds/Vereinigte Motorverlage GmbH and Co KG\nBestellnr. 27200415 B YEAR: 1991
EXTT0=
EXTT1=
EXTT2=
EXTT3=
EXTT4=
EXTT5=
EXTT6=
EXTT7=
EXTT8=
EXTT9=
EXTT10=
EXTT11=
EXTT12=
EXTT13=
PLAYORDER=
